<svg width="192" height="39" viewBox="0 0 192 39" fill="none" xmlns="http://www.w3.org/2000/svg">
<ellipse cx="22.9082" cy="19.0615" rx="11.7749" ry="11.775" fill="#F6FF6E"/>
<path d="M174.738 31.9158C167.389 31.9158 162.348 26.8034 162.348 18.8863C162.348 11.3597 167.105 5.99876 174.738 5.99876C182.123 5.99876 187.2 11.0757 187.2 18.8863C187.2 26.4838 182.407 31.9158 174.738 31.9158ZM174.738 28.046C179.708 28.046 182.868 24.4957 182.868 18.8863C182.868 13.3478 179.708 9.83306 174.738 9.83306C169.803 9.83306 166.679 13.3478 166.679 18.8863C166.679 24.4957 169.803 28.046 174.738 28.046Z" fill="#032536"/>
<path d="M147.455 31.9158C139.822 31.9158 134.958 26.6614 134.958 18.8863C134.958 11.3597 139.715 5.99876 147.455 5.99876C153.916 5.99876 158.354 9.76205 159.419 16.117H155.052C154.271 12.2117 151.396 9.83306 147.455 9.83306C142.449 9.83306 139.325 13.3478 139.325 18.8863C139.325 24.5667 142.449 28.046 147.455 28.046C151.467 28.046 154.271 25.7383 155.052 21.7975H159.419C158.283 28.259 153.952 31.9158 147.455 31.9158Z" fill="#032536"/>
<path d="M119.612 31.9158C112.263 31.9158 107.221 26.8034 107.221 18.8863C107.221 11.3597 111.979 5.99876 119.612 5.99876C126.996 5.99876 132.073 11.0757 132.073 18.8863C132.073 26.4838 127.28 31.9158 119.612 31.9158ZM119.612 28.046C124.582 28.046 127.742 24.4957 127.742 18.8863C127.742 13.3478 124.582 9.83306 119.612 9.83306C114.677 9.83306 111.553 13.3478 111.553 18.8863C111.553 24.4957 114.677 28.046 119.612 28.046Z" fill="#032536"/>
<path d="M88.2789 31.9159H84.0186V5.99875H96.1605C100.882 5.99875 104.149 8.99773 104.149 13.3296C104.149 16.5137 101.983 19.1424 98.6812 20.031C100.314 20.3642 101.486 21.4009 102.089 22.993L105.285 31.9159H100.74L97.8646 23.7335C97.5096 22.6968 96.693 22.1414 95.5569 22.1414H88.2789V31.9159ZM88.2789 9.99739V18.2168H95.9475C98.5747 18.2168 99.9238 16.2545 99.9238 13.996C99.9238 11.6265 98.3616 9.99739 95.9475 9.99739H88.2789Z" fill="#032536"/>
<path d="M67.9896 31.9158C60.3565 31.9158 55.4927 26.6614 55.4927 18.8863C55.4927 11.3597 60.25 5.99876 67.9896 5.99876C74.4511 5.99876 78.889 9.76205 79.954 16.117H75.5872C74.8061 12.2117 71.9304 9.83306 67.9896 9.83306C62.9837 9.83306 59.8595 13.3478 59.8595 18.8863C59.8595 24.5667 62.9837 28.046 67.9896 28.046C72.0014 28.046 74.8061 25.7383 75.5872 21.7975H79.954C78.818 28.259 74.4866 31.9158 67.9896 31.9158Z" fill="#032536"/>
<path fill-rule="evenodd" clip-rule="evenodd" d="M41.0161 19.0615C41.0161 29.0625 32.9087 37.1699 22.9077 37.1699C12.9067 37.1699 4.79932 29.0625 4.79932 19.0615C4.79932 16.8274 5.20389 14.6878 5.94378 12.7119L5.88621 12.6925C6.00829 12.4193 6.14521 12.134 6.29681 11.8394C9.08627 5.43249 15.4739 0.953064 22.9077 0.953064C32.9087 0.953064 41.0161 9.06048 41.0161 19.0615ZM13.6479 15.3096C13.2843 16.3364 13.0865 17.4416 13.0865 18.593C13.0865 23.3353 16.4431 27.2935 20.9101 28.2215C20.3827 26.557 20.064 24.2161 20.0831 21.6254C20.0937 20.175 20.2092 18.8044 20.4056 17.5881L13.6479 15.3096ZM24.839 28.2402C25.3889 26.5842 25.7407 24.2526 25.7597 21.6673C25.7656 20.8735 25.7397 20.1031 25.6858 19.3685L32.2883 21.5947C31.2094 24.9646 28.3625 27.5435 24.839 28.2402Z" fill="#032536"/>
</svg>
